# xmcd CD database file
#
# Track frame offsets:
#	150
#	8897
#	19997
#	34868
#	45999
#	58653
#	68595
#	85593
#	102222
#	117883
#	129579
#	146309
#	160052
#	175248
#	195167
#	215369
#	230114
#	246969
#	260717
#	272256
#	282579
#	296320
#	311384
#	326875
#	340933
#
# Disc length: 4700 seconds
#
# Revision: 0
# Processed by: cddbd v1.5.2PL0 Copyright (c) Steve Scherf et al.
# Submitted via: CDex 1.70beta2
#
DISCID=61125a19
DTITLE=Fešáci - Fešáci pošta and 12 x bonus
DYEAR=2000
DGENRE=Country
TTITLE0=Pošta Fešáci
TTITLE1=Strašidelný vlak
TTITLE2=Od ní
TTITLE3=Závlačka je holka malá
TTITLE4=Neboj, lásko
TTITLE5=Podzimní zpráva
TTITLE6=Šéfe
TTITLE7=Muž z hlasem medovým
TTITLE8=První vlak
TTITLE9=Vlak 30-50
TTITLE10=Má ráda máj
TTITLE11=Pamětí
TTITLE12=Písně vlaků
TTITLE13=Susy
TTITLE14=Cesty domů
TTITLE15=Country bál
TTITLE16=Hvězda countryon
TTITLE17=Rychlík ze stanice mládí
TTITLE18=Káva ,chito, kofola
TTITLE19=Zimní dívka
TTITLE20=Nás 6 a Klára
TTITLE21=Phoenix
TTITLE22=Pražce
TTITLE23=Pět stromů
TTITLE24=Písnička o cestách
EXTD=YEAR: 2000
EXTT0=
EXTT1=
EXTT2=
EXTT3=
EXTT4=
EXTT5=
EXTT6=
EXTT7=
EXTT8=
EXTT9=
EXTT10=
EXTT11=
EXTT12=
EXTT13=
EXTT14=
EXTT15=
EXTT16=
EXTT17=
EXTT18=
EXTT19=
EXTT20=
EXTT21=
EXTT22=
EXTT23=
EXTT24=
PLAYORDER=
